<svg width="92" height="103" viewBox="0 0 92 103" fill="none" xmlns="http://www.w3.org/2000/svg">
<path d="M2.66385 20.3015C2.95974 19.976 3.42946 19.8056 4.06424 19.8093C4.69911 19.813 5.47618 19.9918 6.34705 20.3353C8.08735 21.0217 10.1627 22.3516 12.1528 24.1679C14.143 25.9844 15.6582 27.9316 16.5022 29.6039C16.9245 30.4406 17.1738 31.1988 17.2366 31.8317C17.2994 32.4648 17.1744 32.9497 16.8785 33.2753C16.5826 33.6006 16.1128 33.7698 15.4781 33.7661C14.8432 33.7623 14.0661 33.5849 13.1953 33.2415C11.455 32.555 9.37968 31.2239 7.3895 29.4074C5.39949 27.5911 3.88417 25.6451 3.04014 23.9728C2.61778 23.136 2.36848 22.3767 2.30568 21.7436C2.24303 21.111 2.36813 20.6269 2.66385 20.3015Z" fill="#E8C500" stroke="#B9B9B9" stroke-width="0.4"/>
<path d="M46.8824 0.578043C47.3193 0.533514 47.7822 0.72082 48.2526 1.1481C48.7229 1.57542 49.1828 2.22786 49.6026 3.06603C50.4416 4.74101 51.1017 7.11938 51.3741 9.80296C51.6465 12.4865 51.4779 14.9494 50.9927 16.7593C50.7499 17.6649 50.4306 18.3969 50.0558 18.9103C49.6809 19.4237 49.265 19.7006 48.8281 19.7452C48.3913 19.7896 47.9282 19.6024 47.4579 19.1751C46.9876 18.7478 46.5277 18.0953 46.1079 17.2572C45.2689 15.5822 44.6098 13.2037 44.3373 10.5201C44.0649 7.83662 44.2326 5.37381 44.7178 3.56388C44.9606 2.6582 45.2799 1.92632 45.6547 1.41287C46.0296 0.899409 46.4455 0.622638 46.8824 0.578043Z" fill="#E8C500" stroke="#B9B9B9" stroke-width="0.4"/>
<path d="M20.548 8.56299C20.9089 8.31212 21.4049 8.25153 22.0228 8.39715C22.6406 8.54285 23.3578 8.89057 24.1299 9.41997C25.6735 10.4783 27.4002 12.2397 28.9355 14.4554C30.4707 16.671 31.5139 18.9069 31.9641 20.7258C32.1894 21.636 32.2645 22.4312 32.1847 23.0622C32.1049 23.6932 31.8749 24.1377 31.5142 24.3888C31.1534 24.6398 30.6573 24.7001 30.0394 24.5546C29.4214 24.409 28.7033 24.0612 27.9309 23.5316C26.3875 22.4732 24.6612 20.7125 23.1259 18.4969C21.5905 16.2812 20.547 14.0447 20.0968 12.2257C19.8715 11.3156 19.7977 10.5206 19.8775 9.88952C19.9573 9.25839 20.1871 8.81405 20.548 8.56299Z" fill="#E8C500" stroke="#B9B9B9" stroke-width="0.4"/>
<path d="M75.1587 9.95488C74.7978 9.70402 74.3018 9.64342 73.6839 9.78904C73.066 9.93474 72.3489 10.2825 71.5768 10.8119C70.0332 11.8702 68.3065 13.6316 66.7712 15.8473C65.2359 18.0629 64.1928 20.2988 63.7426 22.1177C63.5173 23.0279 63.4422 23.823 63.522 24.4541C63.6018 25.0851 63.8318 25.5296 64.1925 25.7807C64.5533 26.0317 65.0494 26.092 65.6672 25.9465C66.2853 25.8009 67.0033 25.453 67.7757 24.9234C69.3192 23.8651 71.0455 22.1044 72.5808 19.8888C74.1161 17.6731 75.1597 15.4366 75.6099 13.6176C75.8352 12.7075 75.9089 11.9125 75.8292 11.2814C75.7493 10.6503 75.5196 10.2059 75.1587 9.95488Z" fill="#E8C500" stroke="#B9B9B9" stroke-width="0.4"/>
<path d="M91.4018 19.9329C91.1059 19.6074 90.6362 19.4369 90.0014 19.4406C89.3665 19.4444 88.5895 19.6232 87.7186 19.9667C85.9783 20.6531 83.903 21.983 81.9129 23.7993C79.9227 25.6157 78.4075 27.563 77.5634 29.2353C77.1412 30.072 76.8918 30.8302 76.829 31.4631C76.7662 32.0962 76.8912 32.5811 77.1871 32.9066C77.483 33.232 77.9529 33.4012 78.5876 33.3975C79.2224 33.3937 79.9995 33.2163 80.8703 32.8728C82.6107 32.1864 84.686 30.8552 86.6761 29.0388C88.6662 27.2225 90.1815 25.2764 91.0255 23.6042C91.4479 22.7673 91.6972 22.008 91.76 21.375C91.8226 20.7424 91.6975 20.2583 91.4018 19.9329Z" fill="#E8C500" stroke="#B9B9B9" stroke-width="0.4"/>
<path d="M46.9687 47.6485C68.7117 46.0586 83.9141 60.0297 83.9141 75.2247C83.9139 82.8171 79.7968 89.7062 73.1103 94.7042C66.4236 99.7023 57.1764 102.8 46.9541 102.8C36.7316 102.8 27.4846 99.7023 20.7978 94.7042C14.1112 89.7062 9.99428 82.8172 9.99413 75.2247C9.99413 67.632 14.1111 60.7424 20.7978 55.7442C27.4846 50.7461 36.7317 47.6485 46.9541 47.6485H46.9687Z" fill="#A3C3FF" stroke="#B9B9B9" stroke-width="0.4"/>
<path d="M9.98265 38.3028C12.1249 36.0542 15.5679 34.5702 21.1116 34.7589C26.6604 34.9479 34.297 36.8129 44.7922 41.2452L44.8674 41.2765L44.9436 41.2472C66.6442 32.7238 77.0383 34.4062 82.0227 39.0929C84.5191 41.4403 85.6897 44.5666 86.2336 47.6241C86.7779 50.6832 86.6916 53.6508 86.6916 55.6759C86.6915 57.6097 85.5657 59.4811 83.4631 61.2101C81.3618 62.9379 78.3087 64.5032 74.5188 65.8214C66.9406 68.457 56.458 70.0909 44.8703 70.0909C33.2858 70.0909 23.6767 68.1969 16.9719 65.3048C13.6191 63.8585 11.0009 62.1658 9.22386 60.3438C7.44744 58.5225 6.52079 56.5824 6.52074 54.6319C6.52074 52.5943 6.30455 49.6548 6.63402 46.6319C6.96302 43.6135 7.83441 40.5577 9.98265 38.3028Z" fill="#83B8C4" stroke="#B9B9B9" stroke-width="0.4"/>
<path d="M45.2178 33.6056C54.9947 33.6056 63.843 34.034 70.2441 34.7257C73.4459 35.0717 76.0288 35.4822 77.8076 35.9367C78.6986 36.1643 79.377 36.4006 79.8281 36.6388C80.0537 36.758 80.2126 36.8724 80.3125 36.9787C80.4115 37.084 80.4404 37.1686 80.4404 37.2335C80.4403 37.2984 80.4112 37.3824 80.3125 37.4874C80.2126 37.5937 80.0537 37.7081 79.8281 37.8273C79.377 38.0655 78.6986 38.3018 77.8076 38.5294C76.0288 38.9839 73.446 39.3954 70.2441 39.7413C63.843 40.433 54.9947 40.8605 45.2178 40.8605C35.4407 40.8605 26.5917 40.433 20.1904 39.7413C16.9886 39.3954 14.4057 38.9839 12.6269 38.5294C11.7361 38.3018 11.0585 38.0655 10.6074 37.8273C10.3817 37.7081 10.223 37.5937 10.123 37.4874C10.0242 37.3823 9.99426 37.2985 9.99413 37.2335C9.99413 37.1686 10.024 37.0841 10.123 36.9787C10.223 36.8724 10.3818 36.758 10.6074 36.6388C11.0585 36.4006 11.7362 36.1642 12.6269 35.9367C14.4057 35.4822 16.9887 35.0717 20.1904 34.7257C26.5917 34.034 35.4407 33.6056 45.2178 33.6056Z" fill="#603D2E" stroke="#B9B9B9" stroke-width="0.4"/>
<path opacity="0.27" d="M83.3492 71.0946C83.3492 74.1396 68.2239 82.1216 48.3556 82.1216C28.4873 82.1216 10.4187 74.1396 10.4187 71.0946C10.4187 68.0496 28.4873 74.6346 48.3556 74.6346C68.2239 74.6346 83.3492 68.0496 83.3492 71.0946Z" fill="#D9D9D9"/>
<path opacity="0.27" d="M86.8221 53C86.8221 56.0451 70.1122 64.0271 48.1625 64.0271C26.2128 64.0271 6.25121 56.0451 6.25121 53C6.25121 49.955 26.2128 56.54 48.1625 56.54C70.1122 56.54 86.8221 49.955 86.8221 53Z" fill="#D9D9D9"/>
<path opacity="0.27" d="M81.0604 85.3555C81.0604 88.39 66.9606 96.3443 48.4393 96.3443C29.918 96.3443 13.0743 88.39 13.0743 85.3555C13.0743 82.321 29.918 88.8833 48.4393 88.8833C66.9606 88.8833 81.0604 82.321 81.0604 85.3555Z" fill="#D9D9D9"/>
<path opacity="0.27" d="M82.3678 40.8154C82.3678 43.8498 67.1834 51.8041 47.2374 51.8041C27.2914 51.8041 9.15198 43.8498 9.15198 40.8154C9.15198 37.7809 27.2914 44.3431 47.2374 44.3431C67.1834 44.3431 82.3678 37.7809 82.3678 40.8154Z" fill="#D9D9D9"/>
<path d="M22.666 71.138C22.2285 70.5182 21.8138 69.9348 21.4219 69.388C21.0391 68.832 20.7018 68.317 20.4102 67.843C20.1185 67.36 19.8906 66.9179 19.7266 66.5169C19.5534 66.1158 19.4668 65.7512 19.4668 65.4231C19.4668 65.259 19.5397 65.0813 19.6855 64.8899C19.8223 64.6894 19.9863 64.5071 20.1777 64.343C20.3691 64.1699 20.5651 64.0286 20.7656 63.9192C20.9753 63.8007 21.1484 63.7415 21.2852 63.7415C21.6133 63.7415 21.8958 63.9465 22.1328 64.3567C22.2331 64.5481 22.3835 64.8307 22.584 65.2044C22.7936 65.5689 23.0352 65.9882 23.3086 66.4622C23.582 66.927 23.8828 67.4283 24.2109 67.9661C24.5482 68.4947 24.89 69.0234 25.2363 69.552C25.5918 70.0807 25.9427 70.5911 26.2891 71.0833C26.6445 71.5663 26.9818 71.9947 27.3008 72.3684C27.6289 72.7421 27.9297 73.0429 28.2031 73.2708C28.4857 73.4895 28.7272 73.5989 28.9277 73.5989C29.1921 73.5989 29.4336 73.4166 29.6523 73.052C29.8711 72.6874 30.0716 72.2089 30.2539 71.6165C30.4453 71.024 30.6139 70.3541 30.7598 69.6067C30.9056 68.8502 31.0332 68.0846 31.1426 67.3098C31.2611 66.5351 31.3613 65.7877 31.4434 65.0676C31.5254 64.3385 31.5938 63.7005 31.6484 63.1536C31.6758 62.8619 31.7578 62.6432 31.8945 62.4973C32.0312 62.3424 32.209 62.2649 32.4277 62.2649C32.6191 62.2649 32.8288 62.3059 33.0566 62.388C33.2845 62.47 33.4987 62.5839 33.6992 62.7298C33.8997 62.8665 34.0638 63.0305 34.1914 63.2219C34.3281 63.4042 34.3965 63.6048 34.3965 63.8235C34.3965 64.1607 34.3646 64.5572 34.3008 65.013C34.2461 65.4687 34.1732 65.9518 34.082 66.4622C34 66.9635 33.9043 67.4784 33.7949 68.0071C33.6855 68.5266 33.5762 69.0188 33.4668 69.4837C33.3939 69.8118 33.2936 70.2219 33.166 70.7141C33.0475 71.1972 32.8971 71.7122 32.7148 72.259C32.5326 72.7968 32.3184 73.3391 32.0723 73.886C31.8262 74.4238 31.5436 74.9114 31.2246 75.3489C30.9056 75.7773 30.5456 76.1236 30.1445 76.388C29.7526 76.6614 29.3105 76.7981 28.8184 76.7981C28.4629 76.7981 28.0938 76.6979 27.7109 76.4973C27.3281 76.3059 26.9453 76.0507 26.5625 75.7317C26.1797 75.4127 25.8014 75.0527 25.4277 74.6516C25.054 74.2415 24.6986 73.8268 24.3613 73.4075C24.0241 72.9882 23.7096 72.5826 23.418 72.1907C23.1263 71.7896 22.8757 71.4387 22.666 71.138ZM40.7315 62.429C40.4672 62.429 40.2165 62.3925 39.9795 62.3196C39.7517 62.2376 39.5511 62.1282 39.378 61.9915C39.2139 61.8456 39.0817 61.677 38.9815 61.4856C38.8812 61.2942 38.8311 61.0846 38.8311 60.8567C38.8311 60.4739 38.9815 60.164 39.2823 59.927C39.5922 59.69 40.0023 59.5715 40.5127 59.5715C40.7497 59.5715 40.9776 59.6171 41.1963 59.7083C41.4151 59.7903 41.6065 59.9042 41.7705 60.0501C41.9437 60.1959 42.0804 60.3691 42.1807 60.5696C42.281 60.761 42.3311 60.9615 42.3311 61.1712C42.3311 61.5631 42.1853 61.873 41.8936 62.1008C41.611 62.3196 41.2237 62.429 40.7315 62.429ZM38.8584 66.5989C38.8584 66.2799 38.9952 66.0201 39.2686 65.8196C39.5511 65.61 39.9203 65.5051 40.376 65.5051C41.1963 65.5051 41.6338 65.7877 41.6885 66.3528C41.725 66.7447 41.7614 67.1868 41.7979 67.679C41.8435 68.1712 41.8845 68.6952 41.9209 69.2512C41.9665 69.7981 42.003 70.3678 42.0303 70.9602C42.0668 71.5436 42.0987 72.1223 42.126 72.6965C42.1534 73.2617 42.1761 73.8085 42.1944 74.3372C42.2126 74.8658 42.2217 75.3489 42.2217 75.7864C42.2217 76.2421 42.0577 76.5839 41.7295 76.8118C41.4105 77.0396 40.9411 77.1536 40.3213 77.1536C40.0388 77.1536 39.8155 77.0852 39.6514 76.9485C39.4965 76.8209 39.419 76.6295 39.419 76.3743C39.419 75.1165 39.3871 73.9407 39.3233 72.8469C39.2686 71.7441 39.2048 70.7643 39.1319 69.9075C39.0681 69.0507 39.0043 68.3398 38.9405 67.7747C38.8858 67.2005 38.8584 66.8085 38.8584 66.5989ZM54.0255 65.8196C54.0528 65.5644 54.0847 65.3548 54.1212 65.1907C54.1667 65.0175 54.2305 64.8808 54.3126 64.7805C54.4037 64.6712 54.5177 64.5937 54.6544 64.5481C54.7911 64.5025 54.9643 64.4798 55.1739 64.4798C55.8393 64.4798 56.3269 64.58 56.6368 64.7805C56.9558 64.9719 57.1153 65.2818 57.1153 65.7102C57.1153 65.7923 57.0971 65.9745 57.0606 66.2571C57.0333 66.5305 56.9923 66.8723 56.9376 67.2825C56.8829 67.6835 56.8191 68.1301 56.7462 68.6223C56.6824 69.1054 56.6186 69.5976 56.5548 70.0989C56.3907 71.2656 56.2039 72.5735 55.9942 74.0227C55.8666 74.8795 55.6114 75.4947 55.2286 75.8684C54.8549 76.2421 54.2989 76.429 53.5606 76.429C53.0046 76.429 52.4304 76.2877 51.838 76.0051C51.2455 75.7226 50.6713 75.3398 50.1153 74.8567C49.5593 74.3736 49.0307 73.8131 48.5294 73.1751C48.0372 72.5279 47.6042 71.8443 47.2305 71.1243C46.8568 70.3951 46.5606 69.6523 46.3419 68.8958C46.1322 68.1393 46.0274 67.401 46.0274 66.6809C46.0274 65.8697 46.1414 65.2636 46.3692 64.8626C46.6062 64.4524 47.0118 64.2473 47.586 64.2473C47.9871 64.2473 48.3197 64.2747 48.5841 64.3294C48.8484 64.3749 49.058 64.4615 49.213 64.5891C49.377 64.7076 49.491 64.8671 49.5548 65.0676C49.6277 65.2682 49.6641 65.5188 49.6641 65.8196C49.6641 66.0201 49.655 66.2206 49.6368 66.4212C49.6186 66.6217 49.6095 66.8222 49.6095 67.0227C49.6095 67.4876 49.655 67.9752 49.7462 68.4856C49.8464 68.9869 49.9786 69.4791 50.1427 69.9622C50.3067 70.4452 50.4981 70.9055 50.7169 71.343C50.9356 71.7714 51.168 72.1497 51.4141 72.4778C51.6602 72.8059 51.9063 73.0657 52.1524 73.2571C52.4076 73.4485 52.6537 73.5442 52.8907 73.5442C53.0548 73.5442 53.1778 73.4895 53.2598 73.3801C53.351 73.2708 53.4102 73.0839 53.4376 72.8196L54.0255 65.8196ZM69.6163 64.4251C70.1176 64.4251 70.6007 64.5025 71.0655 64.6575C71.5304 64.8124 71.9405 65.0266 72.296 65.3001C72.6515 65.5735 72.934 65.9016 73.1437 66.2844C73.3624 66.6673 73.4718 67.0911 73.4718 67.5559C73.4718 67.7473 73.4262 67.9342 73.3351 68.1165C73.253 68.2896 73.1391 68.4446 72.9933 68.5813C72.8474 68.7089 72.6788 68.8137 72.4874 68.8958C72.3051 68.9687 72.1137 69.0051 71.9132 69.0051C71.895 69.0051 71.8767 69.0097 71.8585 69.0188C71.8494 69.0188 71.8357 69.0188 71.8175 69.0188C71.7993 69.0279 71.781 69.0325 71.7628 69.0325L71.8175 70.1262C71.854 71.4296 72.0363 72.3821 72.3644 72.9837C72.7016 73.5852 73.1391 73.886 73.6769 73.886C73.8683 73.886 74.0369 73.8678 74.1827 73.8313C74.3377 73.7949 74.479 73.7538 74.6066 73.7083C74.7433 73.6536 74.8709 73.608 74.9894 73.5715C75.1079 73.5351 75.2264 73.5169 75.3448 73.5169C75.5545 73.5169 75.7368 73.608 75.8917 73.7903C76.0558 73.9726 76.1378 74.1913 76.1378 74.4465C76.1378 74.7018 76.0376 74.957 75.837 75.2122C75.6456 75.4674 75.3904 75.6998 75.0714 75.9094C74.7524 76.11 74.3924 76.274 73.9913 76.4016C73.5903 76.5292 73.1847 76.593 72.7745 76.593C72.0636 76.593 71.4392 76.3014 70.9015 75.718C70.3637 75.1256 69.9809 74.2597 69.753 73.1204C69.6984 72.9381 69.6254 72.8469 69.5343 72.8469C69.4249 72.8469 69.3292 72.9016 69.2472 73.011C68.3448 74.1503 67.3833 75.0071 66.3624 75.5813C65.3416 76.1464 64.3344 76.429 63.3409 76.429C62.8761 76.429 62.4568 76.3606 62.0831 76.2239C61.7094 76.0872 61.3904 75.8958 61.1261 75.6497C60.8709 75.3945 60.6704 75.0891 60.5245 74.7337C60.3878 74.3691 60.3195 73.9635 60.3195 73.5169C60.3195 72.888 60.4562 72.2271 60.7296 71.5344C61.0122 70.8417 61.3904 70.1581 61.8644 69.4837C62.3383 68.8092 62.8852 68.1666 63.505 67.5559C64.1339 66.9452 64.7902 66.4075 65.4738 65.9426C66.1665 65.4778 66.8683 65.1087 67.5792 64.8352C68.2902 64.5618 68.9692 64.4251 69.6163 64.4251ZM69.1652 69.1555C69.3292 68.8456 69.4796 68.6223 69.6163 68.4856C69.753 68.3398 69.949 68.2441 70.2042 68.1985C70.4047 68.1712 70.505 68.1074 70.505 68.0071C70.505 67.9342 70.4777 67.8567 70.423 67.7747C70.2498 67.5377 70.0675 67.3326 69.8761 67.1594C69.6847 66.9771 69.4295 66.886 69.1105 66.886C68.7641 66.886 68.3767 66.9863 67.9484 67.1868C67.52 67.3873 67.0825 67.6562 66.6359 67.9934C66.1984 68.3215 65.7654 68.6998 65.337 69.1282C64.9178 69.5475 64.5441 69.9804 64.2159 70.427C63.8878 70.8736 63.6235 71.3157 63.423 71.7532C63.2224 72.1907 63.1222 72.5826 63.1222 72.929C63.1222 73.2389 63.2042 73.4804 63.3683 73.6536C63.5415 73.8268 63.7739 73.9133 64.0655 73.9133C64.8129 73.9133 65.6287 73.5169 66.5128 72.7239C67.3969 71.9309 68.281 70.7415 69.1652 69.1555Z" fill="#603D2E"/>
</svg>
